<?xml version="1.0" encoding="utf-8"?>
<!-- Generator: Adobe Illustrator 25.0.1, SVG Export Plug-In . SVG Version: 6.00 Build 0)  -->
<svg version="1.1" id="Layer_1" xmlns="http://www.w3.org/2000/svg" xmlns:xlink="http://www.w3.org/1999/xlink" x="0px" y="0px"
	 viewBox="0 0 200 50" style="enable-background:new 0 0 200 50;" xml:space="preserve">
<style type="text/css">
	.st0{fill:#FFFFFF;}
	.st1{fill:#36C0C3;}
	.st2{fill:#B3B3B3;}
</style>
<g>
	<path class="st0" d="M111,26.6l5.3-0.7c0.1,1.7,0.5,2.9,1.1,3.7c0.6,0.8,1.5,1.2,2.7,1.2c1,0,1.8-0.3,2.5-0.9c0.6-0.6,1-1.4,1-2.3
		c0-1.7-1.5-3.9-4.5-6.6c-0.2-0.2-0.4-0.4-0.5-0.5c-2.9-2.7-4.8-4.7-5.7-6.2c-0.8-1.4-1.3-3-1.3-4.6c0-2.3,0.8-4.3,2.5-5.9
		c1.7-1.6,3.7-2.4,6.1-2.4c2.4,0,4.3,0.7,5.8,2.2c1.5,1.5,2.4,3.4,2.6,6l-5.5,0.7c-0.1-1.5-0.4-2.5-0.9-3.2c-0.5-0.6-1.2-1-2.2-1
		c-0.9,0-1.6,0.3-2.2,0.8c-0.5,0.6-0.8,1.3-0.8,2.2c0,1.9,1.8,4.4,5.3,7.5c0.1,0.1,0.2,0.2,0.3,0.3c2.6,2.3,4.3,4.1,5.1,5.6
		c0.8,1.4,1.2,3.1,1.2,4.8c0,2.4-0.8,4.4-2.5,5.9c-1.6,1.5-3.7,2.3-6.2,2.3c-2.8,0-5-0.8-6.6-2.4C112,31.7,111.1,29.5,111,26.6z"/>
	<path class="st0" d="M128.3,6.3V1.5h17.2v4.8h-5.8v29.5h-5.6V6.3H128.3z"/>
	<path class="st0" d="M142.8,35.7l6-34.2h7.3l5.9,34.2h-5.7l-1.1-7.9h-5.6l-1.2,7.9H142.8z M150.2,23.2h4.3l-1.9-14.3h-0.4
		L150.2,23.2z"/>
	<path class="st0" d="M169.5,20.6v15.1h-5.6V1.5h8.2c3.1,0,5.3,0.8,6.7,2.3c1.4,1.5,2.1,3.9,2.1,7.3c0,2.1-0.3,3.7-0.8,5
		c-0.6,1.3-1.5,2.3-2.7,3.1l4.7,16.6h-5.8l-4.1-15.1H169.5z M169.5,6.3v9.6h2.2c1.3,0,2.2-0.4,2.7-1.1c0.5-0.7,0.8-2,0.8-3.9
		c0-1.7-0.3-2.9-0.8-3.6c-0.5-0.7-1.5-1-2.8-1H169.5z"/>
	<path class="st0" d="M180.8,6.3V1.5H198v4.8h-5.8v29.5h-5.6V6.3H180.8z"/>
</g>
<polygon class="st1" points="73,30.9 78.6,30.9 90.4,19 61.2,19 61.2,48.5 73,36.5 "/>
<path class="st0" d="M17.8,13.4H96l11.7-11.8h-90v0C9.7,1.5,3.1,8.1,3.1,16.2c0,8.1,6.6,14.7,14.7,14.7v0h24.8v0
	c1.6,0,2.8,1.3,2.8,2.8c0,1.6-1.3,2.8-2.8,2.8H13.7L2,48.4h40.6c8.1,0,14.7-6.6,14.7-14.7S50.7,19,42.6,19v0H17.8
	c-1.6,0-2.8-1.3-2.8-2.8C15,14.7,16.3,13.4,17.8,13.4z"/>
<g>
	<path class="st2" d="M111.5,38.9h7.1v1.4h-5.3v2.5h4.7v1.3h-4.7v4.2h-1.8V38.9z"/>
	<path class="st2" d="M124.8,38.9h1.8v9.4h-1.8V38.9z"/>
	<path class="st2" d="M132.6,38.9h8.3v1.4h-3.3v8h-1.8v-8h-3.3V38.9z"/>
	<path class="st2" d="M146.9,38.9h1.9l4.7,6.9h0v-6.9h1.7v9.4h-1.9l-4.7-6.9h0v6.9h-1.7V38.9z"/>
	<path class="st2" d="M162.1,38.9h7.4v1.4h-5.6v2.5h5.2v1.3h-5.2v2.7h5.7v1.4h-7.5V38.9z"/>
	<path class="st2" d="M177.2,45.1c0,1.4,1.2,2,2.6,2c1.6,0,2.2-0.7,2.2-1.4c0-0.7-0.4-1-0.9-1.2c-0.7-0.2-1.7-0.4-3.1-0.8
		c-1.8-0.4-2.3-1.4-2.3-2.4c0-1.9,1.9-2.8,3.8-2.8c2.2,0,4,1,4,3h-1.8c-0.1-1.2-1-1.7-2.2-1.7c-0.8,0-1.9,0.3-1.9,1.2
		c0,0.7,0.5,1,1.2,1.2c0.2,0,2.4,0.6,3,0.7c1.4,0.4,2,1.4,2,2.4c0,2.1-2.1,2.9-4.1,2.9c-2.4,0-4.3-1-4.3-3.3H177.2z"/>
	<path class="st2" d="M191.3,45.1c0,1.4,1.2,2,2.6,2c1.6,0,2.2-0.7,2.2-1.4c0-0.7-0.4-1-0.9-1.2c-0.7-0.2-1.7-0.4-3.1-0.8
		c-1.8-0.4-2.3-1.4-2.3-2.4c0-1.9,1.9-2.8,3.8-2.8c2.2,0,4,1,4,3h-1.8c-0.1-1.2-1-1.7-2.2-1.7c-0.8,0-1.9,0.3-1.9,1.2
		c0,0.7,0.5,1,1.2,1.2c0.2,0,2.4,0.6,3,0.7c1.4,0.4,2,1.4,2,2.4c0,2.1-2.1,2.9-4.1,2.9c-2.4,0-4.3-1-4.3-3.3H191.3z"/>
</g>
</svg>
